<?xml version="1.0" encoding="UTF-8" standalone="no"?>
<svg width="65px" height="40px" viewBox="0 0 65 40" version="1.1" xmlns="http://www.w3.org/2000/svg" xmlns:xlink="http://www.w3.org/1999/xlink" xmlns:sketch="http://www.bohemiancoding.com/sketch/ns">
    <!-- Generator: Sketch 3.3.3 (12081) - http://www.bohemiancoding.com/sketch -->
    <title>Shape</title>
    <desc>Created with Sketch.</desc>
    <defs></defs>
    <g id="Page-1" stroke="none" stroke-width="1" fill="none" fill-rule="evenodd" sketch:type="MSPage">
        <path d="M2.69433628,39.0767814 L25.0573274,21.8220987 C26.9433628,23.3445707 29.6376991,24.1058067 32.601469,24.1058067 C35.2958053,24.1058067 37.9901416,23.3445707 40.1456106,21.8220987 L40.1456106,21.8220987 L62.5086018,39.3305268 L2.69433628,39.3305268 L2.69433628,39.0767814 L2.69433628,39.0767814 Z M37.9901416,19.792136 C36.3735398,20.8071174 34.4875044,21.5683534 32.0626018,21.5683534 C29.9071327,21.5683534 27.7516637,21.0608627 26.4044956,19.792136 L2.69433628,0 L62.2391681,0 L37.9901416,19.792136 L37.9901416,19.792136 Z M41.7622124,20.0458814 L64.6640708,2.53745334 L64.6640708,36.5393281 L41.7622124,20.0458814 L41.7622124,20.0458814 Z M0,36.5393281 L0,2.53745334 L22.9018584,20.2996267 L0,36.5393281 L0,36.5393281 Z" id="Shape" fill="#39BBA1" sketch:type="MSShapeGroup"></path>
    </g>
</svg>