<?xml version="1.0" encoding="UTF-8" standalone="no"?>
<svg width="122px" height="85px" viewBox="0 0 122 85" version="1.1" xmlns="http://www.w3.org/2000/svg" xmlns:xlink="http://www.w3.org/1999/xlink" xmlns:sketch="http://www.bohemiancoding.com/sketch/ns">
    <!-- Generator: Sketch 3.3.3 (12081) - http://www.bohemiancoding.com/sketch -->
    <title>ic_restaurant_menu_black_24px + ic_local_bar_black_24px</title>
    <desc>Created with Sketch.</desc>
    <defs></defs>
    <g id="Page-1" stroke="none" stroke-width="1" fill="none" fill-rule="evenodd" sketch:type="MSPage">
        <g id="ic_restaurant_menu_black_24px-+-ic_local_bar_black_24px" sketch:type="MSLayerGroup" fill="#39BBA1">
            <g id="ic_restaurant_menu_black_24px" sketch:type="MSShapeGroup">
                <path d="M18.6805562,34.2962346 L28.152902,24.8238888 L4.65612886,1.36058677 C-0.565376288,6.58209192 -0.565376288,15.0503022 4.65612886,20.3052785 L18.6805562,34.2962346 L18.6805562,34.2962346 Z M41.3740209,28.2379498 C46.4951125,30.6144041 53.6914176,28.9408447 59.0133363,23.618926 C65.406333,17.2259293 66.6447669,8.05482414 61.7245025,3.13455967 C56.8377092,-1.75223361 47.666604,-0.547270883 41.2401361,5.84572581 C35.9182174,11.1676445 34.2446581,18.3639497 36.6211123,23.4850413 L3.95323394,56.1529197 L8.67267129,60.872357 L31.734319,37.8776516 L54.7624956,60.9058282 L59.481933,56.1863909 L36.4537564,33.1582143 L41.3740209,28.2379498 L41.3740209,28.2379498 Z" id="Shape"></path>
            </g>
            <g id="ic_local_bar_black_24px" transform="translate(74.000000, 37.000000)" sketch:type="MSShapeGroup">
                <path d="M21.3333333,26.6666667 L21.3333333,42.6666667 L8,42.6666667 L8,48 L40,48 L40,42.6666667 L26.6666667,42.6666667 L26.6666667,26.6666667 L48,5.33333333 L48,0 L0,0 L0,5.33333333 L21.3333333,26.6666667 L21.3333333,26.6666667 Z M12,10.6666667 L6.66666667,5.33333333 L41.3333333,5.33333333 L36,10.6666667 L12,10.6666667 L12,10.6666667 Z" id="Shape"></path>
            </g>
        </g>
    </g>
</svg>