<?xml version="1.0" encoding="UTF-8" standalone="no"?>
<svg width="273px" height="114px" viewBox="0 0 273 114" version="1.1" xmlns="http://www.w3.org/2000/svg" xmlns:xlink="http://www.w3.org/1999/xlink" xmlns:sketch="http://www.bohemiancoding.com/sketch/ns">
    <!-- Generator: Sketch 3.3.3 (12081) - http://www.bohemiancoding.com/sketch -->
    <title>Git-logo</title>
    <desc>Created with Sketch.</desc>
    <defs></defs>
    <g id="Page-1" stroke="none" stroke-width="1" fill="none" fill-rule="evenodd" sketch:type="MSPage">
        <g id="Git-logo" sketch:type="MSLayerGroup" transform="translate(0.000000, -1.000000)">
            <path d="M163.59,39.806 C157.605,39.806 153.148,42.7449 153.148,49.818 C153.148,55.1471 156.0855,58.8464 163.268,58.8464 C169.3555,58.8464 173.49,55.2595 173.49,49.5979 C173.49,43.1819 169.79,39.8064 163.59,39.8064 L163.59,39.806 Z M151.62,89.746 C150.2038,91.4842 148.7925,93.331 148.7925,95.5106 C148.7925,99.8588 154.3375,101.1674 161.9545,101.1674 C168.2645,101.1674 176.8595,100.72552 176.8595,94.8589 C176.8595,91.372 172.7245,91.1561 167.4995,90.8285 L151.6195,89.746 L151.62,89.746 Z M183.821,40.135 C185.776,42.6379 187.846,46.1198 187.846,51.124 C187.846,63.199 178.381,70.27 164.677,70.27 C161.192,70.27 158.037,69.83588 156.0808,69.29288 L152.4896,75.05768 L163.1496,75.70893 C181.9716,76.90813 193.0646,77.45313 193.0646,91.91693 C193.0646,104.43093 182.0796,111.49793 163.1496,111.49793 C143.4596,111.49793 135.9536,106.49303 135.9536,97.89993 C135.9536,93.00243 138.1298,90.39743 141.9374,86.80193 C138.3462,85.28393 137.1512,82.56573 137.1512,79.62713 C137.1512,77.23213 138.3462,75.05693 140.3074,72.98853 C142.2649,70.92353 144.4399,68.85373 147.0512,66.46113 C141.7212,63.85073 137.695,58.19353 137.695,50.14213 C137.695,37.63313 145.9638,29.04213 162.605,29.04213 C167.2838,29.04213 170.1138,29.47275 172.616,30.12953 L193.831,30.12953 L193.831,39.37413 L183.821,40.13588 L183.821,40.135 Z" id="Shape" fill="#6B6B6B" sketch:type="MSShapeGroup"></path>
            <path d="M212.98,20.366 C206.7775,20.366 203.1888,16.7728 203.1888,10.5696 C203.1888,4.3742 206.7776,0.9992 212.98,0.9992 C219.29,0.9992 222.88,4.3742 222.88,10.5696 C222.88,16.7727 219.29,20.366 212.98,20.366 L212.98,20.366 Z M198.944,85.742 L198.944,77.1521 L204.494,76.39285 C206.0178,76.1721 206.234,75.84835 206.234,74.21265 L206.234,42.22965 C206.234,41.03545 205.909,40.27065 204.8178,39.94685 L198.944,37.87805 L200.1402,29.06945 L222.6612,29.06945 L222.6612,74.21345 C222.6612,75.95725 222.7662,76.17295 224.4024,76.39365 L229.9512,77.1529 L229.9512,85.7428 L198.9432,85.7428 L198.944,85.742 Z" id="Shape" fill="#6B6B6B" sketch:type="MSShapeGroup"></path>
            <path d="M272.97,81.526 C268.29,83.8078 261.438,85.8751 255.234,85.8751 C242.289,85.8751 237.395,80.6583 237.395,68.3601 L237.395,39.8601 C237.395,39.20872 237.395,38.7717 236.52125,38.7717 L228.90745,38.7717 L228.90745,29.0901 C238.48365,27.9993 242.28845,23.2117 243.48545,11.3541 L253.82145,11.3541 L253.82145,26.8071 C253.82145,27.56585 253.82145,27.8945 254.6927,27.8945 L270.0307,27.8945 L270.0307,38.7715 L253.8217,38.7715 L253.8217,64.7705 C253.8217,71.1899 255.3467,73.6899 261.2179,73.6899 C264.2679,73.6899 267.4191,72.93065 270.0304,71.9507 L272.9704,81.5268" id="Shape" fill="#6B6B6B" sketch:type="MSShapeGroup"></path>
            <path d="M111.78,52.977 L62.035,3.2381 C59.1728,0.3733 54.5268,0.3733 51.661,3.2381 L41.332,13.5681 L54.434,26.6701 C57.4799,25.6417 60.9711,26.33122 63.3979,28.7585 C65.8373,31.2009 66.5219,34.7219 65.4677,37.778 L78.0957,50.406 C81.1508,49.3532 84.6757,50.03338 87.1152,52.4772 C90.5258,55.8868 90.5258,61.4117 87.1152,64.8222 C83.7041,68.2338 78.1792,68.2338 74.7662,64.8222 C72.2017,62.2557 71.5674,58.4877 72.8663,55.328 L61.0893,43.551 L61.0883,74.542 C61.9198,74.95362 62.7045,75.503 63.3974,76.1929 C66.807,79.6021 66.807,85.126 63.3974,88.5409 C59.9868,91.95 54.4594,91.95 51.0524,88.5409 C47.6423,85.1263 47.6423,79.6024 51.0524,76.1929 C51.89515,75.35165 52.8703,74.7149 53.9108,74.2881 L53.9108,43.0091 C52.8698,42.5841 51.8958,41.9521 51.0518,41.1041 C48.4688,38.5231 47.8467,34.7321 49.1714,31.5602 L36.2554,18.6422 L2.1494,52.7472 C-0.7163,55.6142 -0.7163,60.2602 2.1494,63.1252 L51.8914,112.8642 C54.7552,115.729 59.3996,115.729 62.2674,112.8642 L111.7794,63.3602 C114.6442,60.494 114.6442,55.8466 111.7794,52.9812" id="Shape" fill="#55BBA7" sketch:type="MSShapeGroup"></path>
        </g>
    </g>
</svg>