<?xml version="1.0" encoding="UTF-8" standalone="no"?>
<svg width="78px" height="57px" viewBox="0 0 78 57" version="1.1" xmlns="http://www.w3.org/2000/svg" xmlns:xlink="http://www.w3.org/1999/xlink" xmlns:sketch="http://www.bohemiancoding.com/sketch/ns">
    <!-- Generator: Sketch 3.3.3 (12081) - http://www.bohemiancoding.com/sketch -->
    <title>Github__x28_alt_x29_</title>
    <desc>Created with Sketch.</desc>
    <defs></defs>
    <g id="Page-1" stroke="none" stroke-width="1" fill="none" fill-rule="evenodd" sketch:type="MSPage">
        <path d="M56.9064293,0 C57.9196927,2.18024093 58.5761488,5.80139382 57.5966609,8.452639 C61.6020823,11.6930498 62.9790812,19.5704728 61.0452205,26.0078044 C66.7541368,26.4205486 73.5542598,25.8092277 77.9433356,27.4692305 C73.840052,26.9695065 68.2359262,25.9889314 62.9435737,26.3302864 C61.9407028,26.395111 60.4554492,26.2941816 60.5281963,27.6308818 C66.6545425,28.0862953 72.7427831,28.5827371 77.7727263,30.0704212 C72.7834868,29.2982696 66.7272896,28.1215796 60.5281963,27.9582872 C57.9673247,32.7462833 52.8135382,35.0996635 45.6990437,35.5952847 C46.4637544,37.1724104 47.9282231,37.7722433 48.2858964,40.3086094 C48.8193752,44.0979781 47.4510367,49.6474585 48.8011885,52.1731573 C49.4489842,53.3834905 50.5046834,53.4154925 51.2165658,54.4502249 C49.4740993,56.4039899 45.1543064,54.2303135 44.6623973,52.1731573 C43.8197433,48.648831 45.9458643,43.18551 43.6300812,40.796025 C43.7928961,44.6403715 42.6705121,50.038868 43.8024225,53.4729321 C44.2484316,54.8235819 45.5362287,55.3446406 45.1820196,56.5631795 C37.082841,57.3418956 40.4681799,46.631062 39.1440092,40.3077889 C37.9220309,40.3906659 38.4589739,42.0416425 38.4546437,42.7465077 C38.4200022,48.920438 39.7883408,57.3886678 32.7647802,56.5631795 C32.5595294,55.2650458 33.7070285,54.8244025 34.1443772,53.6395067 C35.425246,50.1660555 33.904485,44.9891116 34.4916581,40.7968455 C31.8112734,42.712044 34.7731201,49.3963657 33.112061,52.8238652 C32.1550901,54.7965032 29.0711321,55.6548141 26.731966,54.774348 C27.0368111,53.3055368 28.6372475,53.5426801 29.3162206,52.1739778 C30.2653972,50.266985 29.3231489,47.5180926 29.6617694,44.6978111 C24.7002431,45.6365373 20.8515744,44.5615973 18.9679437,41.6092048 C18.1252897,40.2839925 17.9165747,38.7208164 16.8981152,37.546588 C15.8848518,36.3715391 14.2653625,36.21317 13.7959704,34.6229153 C19.9405034,33.2213904 20.1760654,40.6146801 25.6944536,40.7968455 C27.38669,40.8551057 28.2665837,40.3348675 29.8323787,39.9861274 C30.2705934,38.121804 31.2085116,36.7309465 32.5915728,35.7577565 C25.7247649,34.8674436 20.0539542,32.8414689 17.4168714,27.9591077 C11.1744762,28.2495877 5.46209575,29.0397917 0.171475338,30.2328931 C4.97365085,28.5802754 10.8964783,27.9878275 17.245396,27.7933536 C16.871268,25.6631672 13.5915857,26.2490505 11.5555325,26.331107 C7.77095056,26.4886554 3.00774672,26.9342222 0,27.4692305 C4.35963057,25.9963165 10.4773164,26.180123 16.3836891,26.1686351 C14.5771358,20.8021407 15.2032806,12.277292 19.1428832,9.1025264 C18.0265615,6.43651105 18.3729763,2.07602919 19.8322487,0 C24.230851,0.187088796 26.8982451,2.00464004 29.6617694,3.73931424 C33.088678,2.81617873 36.6922583,2.35666238 41.3879112,2.60119072 C43.3624757,2.7045819 45.4158496,3.54566092 46.9037013,3.41272941 C48.3629737,3.28308015 49.9712045,1.73139193 51.3880412,1.13894408 C53.2335662,0.366792509 54.795031,0.0722097109 56.9064293,0 L56.9064293,0 Z" id="Github__x28_alt_x29_" fill="#39BBA1" sketch:type="MSShapeGroup"></path>
    </g>
</svg>