<?xml version="1.0" encoding="UTF-8" standalone="no"?>
<svg width="364px" height="512px" viewBox="0 0 364 512" version="1.1" xmlns="http://www.w3.org/2000/svg" xmlns:xlink="http://www.w3.org/1999/xlink" xmlns:sketch="http://www.bohemiancoding.com/sketch/ns">
    <!-- Generator: Sketch 3.3.3 (12081) - http://www.bohemiancoding.com/sketch -->
    <title>HTML5_logo_and_wordmark</title>
    <desc>Created with Sketch.</desc>
    <defs></defs>
    <g id="Page-1" stroke="none" stroke-width="1" fill="none" fill-rule="evenodd" sketch:type="MSPage">
        <g id="HTML5_logo_and_wordmark" sketch:type="MSLayerGroup">
            <path d="M33.644,470.877 L0.633,100.62 L363.367,100.62 L330.321,470.819 L181.778,512 L33.644,470.877 Z" id="Shape" fill="#55BBA7" sketch:type="MSShapeGroup"></path>
            <path d="M182,480.523 L302.03,447.246 L330.27,130.894 L182,130.894 L182,480.523 Z" id="Shape" fill="#8AD3C4" sketch:type="MSShapeGroup"></path>
            <path d="M182,268.217 L121.91,268.217 L117.76,221.716 L182,221.716 L182,176.305 L181.843,176.305 L68.132,176.305 L69.219,188.488 L80.38,313.627 L182,313.627 L182,268.217 Z" id="Shape" fill="#EBEBEB" sketch:type="MSShapeGroup"></path>
            <path d="M182,386.153 L181.801,386.206 L131.227,372.55 L127.994,336.333 L103.419,336.333 L82.409,336.333 L88.771,407.634 L181.791,433.457 L182,433.399 L182,386.153 Z" id="Shape" fill="#EBEBEB" sketch:type="MSShapeGroup"></path>
            <path d="M34.382,0 L57.459,0 L57.459,22.8 L78.569,22.8 L78.569,0 L101.647,0 L101.647,69.044 L78.57,69.044 L78.57,45.924 L57.46,45.924 L57.46,69.044 L34.383,69.044 L34.383,0 L34.382,0 Z" id="Shape" fill="#6B6B6B" sketch:type="MSShapeGroup"></path>
            <path d="M131.994,22.896 L111.678,22.896 L111.678,0 L175.398,0 L175.398,22.896 L155.073,22.896 L155.073,69.044 L131.995,69.044 L131.995,22.896 L131.994,22.896 Z" id="Shape" fill="#6B6B6B" sketch:type="MSShapeGroup"></path>
            <path d="M185.511,0 L209.574,0 L224.376,24.26 L239.163,0 L263.235,0 L263.235,69.044 L240.253,69.044 L240.253,34.822 L224.376,59.371 L223.979,59.371 L208.091,34.822 L208.091,69.044 L185.511,69.044 L185.511,0 L185.511,0 Z" id="Shape" fill="#6B6B6B" sketch:type="MSShapeGroup"></path>
            <path d="M274.72,0 L297.804,0 L297.804,46.222 L330.257,46.222 L330.257,69.044 L274.72,69.044 L274.72,0 L274.72,0 Z" id="Shape" fill="#6B6B6B" sketch:type="MSShapeGroup"></path>
            <path d="M181.843,268.217 L181.843,313.627 L237.761,313.627 L232.49,372.521 L181.843,386.191 L181.843,433.435 L274.937,407.634 L275.62,399.962 L286.291,280.411 L287.399,268.217 L275.162,268.217 L181.843,268.217 Z" id="Shape" fill="#FFFFFF" sketch:type="MSShapeGroup"></path>
            <path d="M181.843,176.305 L181.843,204.509 L181.843,221.605 L181.843,221.716 L291.385,221.716 L291.531,221.716 L292.442,211.509 L294.511,188.488 L295.597,176.305 L181.843,176.305 Z" id="Shape" fill="#FFFFFF" sketch:type="MSShapeGroup"></path>
        </g>
    </g>
</svg>