<?xml version="1.0" encoding="UTF-8" standalone="no"?>
<svg width="279px" height="71px" viewBox="0 0 279 71" version="1.1" xmlns="http://www.w3.org/2000/svg" xmlns:xlink="http://www.w3.org/1999/xlink" xmlns:sketch="http://www.bohemiancoding.com/sketch/ns">
    <!-- Generator: Sketch 3.3.3 (12081) - http://www.bohemiancoding.com/sketch -->
    <title>jQueryLogo</title>
    <desc>Created with Sketch.</desc>
    <defs></defs>
    <g id="Page-1" stroke="none" stroke-width="1" fill="none" fill-rule="evenodd" sketch:type="MSPage">
        <g id="jQueryLogo" sketch:type="MSLayerGroup" transform="translate(-1.000000, 0.000000)">
            <g id="Group" transform="translate(105.000000, 54.000000)" fill="#55BBA7" sketch:type="MSShapeGroup">
                <path d="M3.212,8.985 C3.191,9.596 3.149,10.227 3.069,10.897 L5.559,6.383 L5.285,4.911 L7.785,4.529 L8.695,10.782 L9.844,6.861 C9.935,6.478 9.983,6.193 9.993,5.906 C10.003,5.619 9.975,5.312 9.875,4.892 L12.493,4.394 C12.589,4.929 12.65,5.389 12.633,5.867 C12.611,6.498 12.452,7.186 12.014,8.219 L9.906,13.88 L6.789,13.88 L6.134,9.654 L3.693,13.88 L0.672,13.88 C0.791,9.941 0.648,7.474 0.374,4.893 L2.969,4.491 C3.166,5.925 3.269,7.36 3.212,8.985 L3.212,8.985 Z" id="Shape"></path>
                <path d="M19.443,6.825 C18.235,7.474 17.787,7.723 16.693,8.392 L15.526,13.88 L12.831,13.88 L14.735,4.797 L17.119,4.395 L17.017,5.657 C17.935,5.122 18.675,4.739 19.49,4.395 L19.443,6.825 L19.443,6.825 Z" id="Shape"></path>
                <path d="M21.043,4.778 L23.829,4.395 L21.815,13.88 L19.12,13.88 L21.043,4.778 L21.043,4.778 Z M21.914,0.667 L24.7,0.284 L24.083,3.153 L21.316,3.536 L21.914,0.667 L21.914,0.667 Z" id="Shape"></path>
                <path d="M28.794,6.729 L27.81,11.375 C27.788,11.471 27.765,11.566 27.763,11.623 C27.759,11.758 27.833,11.814 28.025,11.814 C28.484,11.814 29.005,11.623 29.491,11.431 L29.961,13.306 C29.182,13.726 28.061,14.071 26.971,14.071 C25.614,14.071 24.909,13.421 24.949,12.312 C24.953,12.177 24.978,12.043 25.001,11.91 L26.1,6.728 L24.724,6.728 L25.182,4.567 L26.559,4.567 L27.019,2.33 L29.804,1.947 L29.254,4.567 L31.472,4.567 L30.861,6.728 L28.794,6.728 L28.794,6.729 Z" id="Shape"></path>
                <path d="M32.004,7.895 C32.46,5.752 33.465,4.376 36.409,4.376 C38.168,4.376 39.479,5.141 39.425,6.709 C39.362,8.525 38.396,9.367 36.077,10.055 C34.936,10.4 34.918,10.4 34.107,10.61 L33.969,11.26 C33.9,11.605 33.927,11.91 34.424,11.91 C35.4,11.91 36.831,11.431 38.112,10.878 L38.561,12.789 C37.408,13.497 35.61,14.071 33.966,14.071 C32.034,14.071 31.241,13.23 31.297,11.642 C31.309,11.298 31.361,10.915 31.451,10.513 L32.004,7.895 L32.004,7.895 Z M36.911,6.997 C36.923,6.671 36.643,6.461 36.146,6.461 C35.17,6.461 34.864,7.016 34.704,7.78 L34.567,8.43 C35.03,8.315 35.241,8.278 35.801,8.105 C36.536,7.895 36.891,7.551 36.911,6.997 L36.911,6.997 Z" id="Shape"></path>
                <path d="M46.381,0.762 L49.167,0.379 L46.324,13.88 L43.629,13.88 L46.381,0.762 L46.381,0.762 Z" id="Shape"></path>
                <path d="M49.516,7.895 C49.972,5.752 50.977,4.376 53.921,4.376 C55.68,4.376 56.991,5.141 56.937,6.709 C56.874,8.525 55.908,9.367 53.589,10.055 C52.448,10.4 52.43,10.4 51.619,10.61 L51.481,11.26 C51.412,11.605 51.439,11.91 51.936,11.91 C52.912,11.91 54.343,11.431 55.624,10.878 L56.073,12.789 C54.92,13.497 53.122,14.071 51.478,14.071 C49.546,14.071 48.753,13.23 48.809,11.642 C48.821,11.298 48.873,10.915 48.963,10.513 L49.516,7.895 L49.516,7.895 Z M54.422,6.997 C54.434,6.671 54.154,6.461 53.657,6.461 C52.681,6.461 52.375,7.016 52.215,7.78 L52.078,8.43 C52.541,8.315 52.752,8.278 53.312,8.105 C54.047,7.895 54.403,7.551 54.422,6.997 L54.422,6.997 Z" id="Shape"></path>
                <path d="M57.16,13.459 L57.746,11.471 C58.444,11.719 59.239,11.949 60.253,11.949 C61.151,11.949 61.218,11.681 61.31,11.241 C61.401,10.821 61.141,10.592 60.109,10.037 C58.196,9.005 58.143,8.315 58.441,6.921 C58.874,4.912 59.486,4.377 62.067,4.377 C62.946,4.377 64.067,4.568 64.824,4.816 L64.312,6.843 C63.63,6.652 62.624,6.498 61.973,6.498 C61.17,6.498 61.051,6.594 60.938,7.091 C60.847,7.531 60.939,7.627 61.821,8.105 C63.923,9.252 64.234,9.655 63.915,11.126 C63.459,13.23 62.818,14.071 60.026,14.071 C59.165,14.072 57.969,13.823 57.16,13.459 L57.16,13.459 Z" id="Shape"></path>
                <path d="M64.884,13.459 L65.47,11.471 C66.168,11.719 66.963,11.949 67.977,11.949 C68.875,11.949 68.942,11.681 69.034,11.241 C69.125,10.821 68.865,10.592 67.833,10.037 C65.92,9.005 65.867,8.315 66.165,6.921 C66.598,4.912 67.21,4.377 69.791,4.377 C70.67,4.377 71.791,4.568 72.548,4.816 L72.036,6.843 C71.354,6.652 70.348,6.498 69.697,6.498 C68.894,6.498 68.775,6.594 68.662,7.091 C68.571,7.531 68.663,7.627 69.545,8.105 C71.647,9.252 71.958,9.655 71.639,11.126 C71.183,13.23 70.542,14.071 67.75,14.071 C66.889,14.072 65.694,13.823 64.884,13.459 L64.884,13.459 Z" id="Shape"></path>
                <path d="M72.271,15.964 L73.817,13.88 L72.803,13.88 L73.468,10.705 L76.163,10.705 L75.434,14.109 L73.218,16.748 L72.271,15.964 L72.271,15.964 Z" id="Shape"></path>
                <path d="M87.008,13.88 L86.959,13.076 C86.271,13.631 85.3,14.071 83.961,14.071 C81.935,14.071 81.481,12.847 81.916,10.762 L82.443,8.257 C82.903,6.038 83.535,4.375 87.454,4.375 C87.741,4.375 88.332,4.413 88.579,4.471 L89.358,0.761 L92.124,0.378 L89.283,13.879 L87.008,13.879 L87.008,13.88 Z M84.544,11.088 C84.431,11.586 84.557,11.815 85.034,11.815 C85.99,11.815 86.695,11.318 87.227,10.859 L88.098,6.71 C87.794,6.652 87.432,6.634 87.05,6.634 C85.654,6.634 85.341,7.379 85.138,8.279 L84.544,11.088 L84.544,11.088 Z" id="Shape"></path>
                <path d="M91.792,10.955 C91.8,10.745 91.827,10.515 91.873,10.305 L92.331,8.144 C92.834,5.753 94.05,4.377 97.3,4.377 C99.805,4.377 100.882,5.812 100.824,7.475 C100.816,7.685 100.789,7.915 100.743,8.144 L100.286,10.305 C99.806,12.542 98.682,14.073 95.298,14.073 C92.927,14.072 91.734,12.657 91.792,10.955 L91.792,10.955 Z M98.121,7.684 C98.145,6.996 97.738,6.633 96.858,6.633 C95.844,6.633 95.233,7.149 95.049,8.067 L94.567,10.381 C94.543,10.514 94.519,10.649 94.515,10.763 C94.492,11.432 94.899,11.815 95.779,11.815 C96.811,11.815 97.402,11.299 97.588,10.381 L98.07,8.067 C98.093,7.933 98.117,7.799 98.121,7.684 L98.121,7.684 Z" id="Shape"></path>
                <path d="M117.283,7.551 C117.306,7.436 117.329,7.34 117.331,7.264 C117.338,7.073 117.245,6.996 116.977,6.996 C116.48,6.996 115.296,7.492 114.518,7.894 L113.257,13.879 L110.58,13.879 L111.91,7.55 C111.932,7.435 111.956,7.339 111.958,7.263 C111.965,7.072 111.872,6.995 111.604,6.995 C111.107,6.995 109.904,7.491 109.164,7.874 L107.903,13.879 L105.208,13.879 L107.112,4.796 L109.496,4.394 L109.441,5.427 C110.919,4.738 112.078,4.375 113.149,4.375 C114.066,4.375 114.53,4.776 114.716,5.465 C116.159,4.642 117.45,4.375 118.521,4.375 C119.764,4.375 120.198,5.083 120.157,6.268 C120.145,6.593 120.113,6.956 120.024,7.339 L118.648,13.879 L115.952,13.879 L117.283,7.551 L117.283,7.551 Z" id="Shape"></path>
                <path d="M121.062,10.955 C121.07,10.745 121.097,10.515 121.143,10.305 L121.601,8.144 C122.104,5.753 123.32,4.377 126.57,4.377 C129.075,4.377 130.152,5.812 130.094,7.475 C130.086,7.685 130.059,7.915 130.013,8.144 L129.556,10.305 C129.076,12.542 127.952,14.073 124.568,14.073 C122.197,14.072 121.003,12.657 121.062,10.955 L121.062,10.955 Z M127.39,7.684 C127.414,6.996 127.007,6.633 126.127,6.633 C125.113,6.633 124.502,7.149 124.318,8.067 L123.836,10.381 C123.812,10.514 123.788,10.649 123.784,10.763 C123.761,11.432 124.168,11.815 125.048,11.815 C126.08,11.815 126.671,11.299 126.857,10.381 L127.339,8.067 C127.363,7.933 127.386,7.799 127.39,7.684 L127.39,7.684 Z" id="Shape"></path>
                <path d="M137.248,6.825 C136.04,7.474 135.592,7.723 134.498,8.392 L133.331,13.88 L130.636,13.88 L132.54,4.797 L134.924,4.395 L134.822,5.657 C135.74,5.122 136.48,4.739 137.295,4.395 L137.248,6.825 L137.248,6.825 Z" id="Shape"></path>
                <path d="M137.861,7.895 C138.317,5.752 139.322,4.376 142.266,4.376 C144.025,4.376 145.336,5.141 145.282,6.709 C145.219,8.525 144.253,9.367 141.933,10.055 C140.793,10.4 140.775,10.4 139.964,10.61 L139.826,11.26 C139.757,11.605 139.784,11.91 140.281,11.91 C141.257,11.91 142.688,11.431 143.969,10.878 L144.418,12.789 C143.265,13.497 141.467,14.071 139.823,14.071 C137.891,14.071 137.098,13.23 137.154,11.642 C137.166,11.298 137.218,10.915 137.308,10.513 L137.861,7.895 L137.861,7.895 Z M142.767,6.997 C142.779,6.671 142.499,6.461 142.002,6.461 C141.026,6.461 140.72,7.016 140.56,7.78 L140.423,8.43 C140.886,8.315 141.097,8.278 141.657,8.105 C142.392,7.895 142.748,7.551 142.767,6.997 L142.767,6.997 Z" id="Shape"></path>
                <path d="M146.384,10.706 L149.079,10.706 L148.414,13.881 L145.719,13.881 L146.384,10.706 L146.384,10.706 Z" id="Shape"></path>
            </g>
            <path d="M4.27,13.443 C-0.287,19.99 0.276,28.507 3.763,35.464 C3.841,35.634 3.931,35.795 4.016,35.959 C4.065,36.065 4.12,36.172 4.181,36.276 C4.207,36.334 4.248,36.397 4.282,36.453 C4.338,36.567 4.398,36.671 4.457,36.78 C4.569,36.968 4.681,37.16 4.793,37.347 C4.856,37.451 4.917,37.556 4.987,37.66 C5.106,37.862 5.244,38.061 5.368,38.263 C5.424,38.349 5.476,38.433 5.536,38.517 C5.715,38.789 5.894,39.058 6.092,39.324 C6.092,39.332 6.099,39.339 6.107,39.342 C6.137,39.387 6.17,39.43 6.2,39.471 C6.368,39.701 6.536,39.925 6.712,40.147 C6.772,40.229 6.838,40.311 6.899,40.391 C7.059,40.586 7.216,40.78 7.373,40.972 C7.433,41.041 7.493,41.114 7.556,41.185 C7.765,41.437 7.985,41.687 8.209,41.934 C8.209,41.937 8.216,41.942 8.22,41.948 C8.227,41.958 8.235,41.968 8.25,41.976 C8.466,42.213 8.687,42.446 8.911,42.678 C8.982,42.748 9.053,42.818 9.131,42.893 C9.302,43.067 9.474,43.242 9.657,43.413 C9.732,43.485 9.806,43.554 9.877,43.622 C10.116,43.847 10.355,44.071 10.605,44.285 C10.609,44.289 10.613,44.291 10.616,44.294 C10.657,44.33 10.702,44.366 10.74,44.401 C10.96,44.589 11.18,44.776 11.404,44.961 C11.494,45.036 11.583,45.107 11.673,45.179 C11.86,45.327 12.046,45.468 12.233,45.611 C12.33,45.683 12.427,45.758 12.528,45.836 C12.73,45.986 12.939,46.134 13.144,46.279 C13.219,46.334 13.293,46.387 13.372,46.437 C13.391,46.455 13.413,46.469 13.432,46.484 C13.637,46.619 13.831,46.75 14.033,46.882 C14.122,46.939 14.208,46.995 14.294,47.053 C14.607,47.253 14.921,47.445 15.231,47.632 C15.32,47.679 15.41,47.729 15.496,47.778 C15.727,47.913 15.963,48.046 16.202,48.173 C16.332,48.245 16.463,48.31 16.598,48.376 C16.759,48.464 16.927,48.554 17.098,48.642 C17.139,48.658 17.18,48.673 17.217,48.694 C17.288,48.726 17.355,48.761 17.422,48.795 C17.684,48.924 17.952,49.045 18.229,49.168 C18.281,49.193 18.337,49.215 18.393,49.243 C18.703,49.377 19.013,49.506 19.33,49.631 C19.405,49.659 19.479,49.693 19.558,49.719 C19.846,49.831 20.144,49.942 20.439,50.047 C20.477,50.063 20.51,50.074 20.547,50.086 C20.875,50.199 21.2,50.305 21.532,50.408 C21.61,50.429 21.689,50.458 21.771,50.478 C22.111,50.581 22.439,50.701 22.786,50.765 C44.819,54.782 51.22,37.525 51.22,37.525 C45.842,44.525 36.298,46.375 27.258,44.318 C26.922,44.242 26.59,44.134 26.25,44.034 C26.171,44.012 26.082,43.986 26.003,43.958 C25.675,43.859 25.35,43.752 25.033,43.645 C24.988,43.629 24.94,43.614 24.895,43.594 C24.608,43.495 24.324,43.387 24.041,43.278 C23.962,43.244 23.88,43.216 23.802,43.186 C23.489,43.063 23.179,42.93 22.877,42.797 C22.81,42.774 22.753,42.744 22.69,42.719 C22.425,42.598 22.171,42.479 21.914,42.355 C21.836,42.322 21.765,42.284 21.686,42.245 C21.484,42.15 21.283,42.044 21.085,41.939 C20.947,41.868 20.812,41.803 20.682,41.73 C20.439,41.6 20.197,41.461 19.954,41.327 C19.879,41.276 19.797,41.233 19.711,41.187 C19.398,41 19.08,40.808 18.771,40.61 C18.682,40.554 18.599,40.499 18.517,40.44 C18.289,40.297 18.065,40.145 17.845,39.997 C17.774,39.946 17.703,39.893 17.629,39.842 C17.416,39.693 17.207,39.542 16.995,39.386 C16.905,39.316 16.812,39.245 16.715,39.174 C16.525,39.027 16.334,38.881 16.144,38.728 C16.061,38.66 15.976,38.591 15.894,38.525 C15.648,38.328 15.416,38.129 15.181,37.923 C15.159,37.9 15.125,37.878 15.099,37.859 C14.849,37.634 14.599,37.406 14.352,37.177 C14.277,37.107 14.214,37.04 14.14,36.974 C13.961,36.798 13.782,36.627 13.606,36.449 C13.531,36.375 13.464,36.305 13.393,36.235 C13.169,36.009 12.949,35.776 12.732,35.537 C12.721,35.527 12.71,35.516 12.698,35.503 C12.47,35.253 12.25,34.999 12.03,34.741 C11.97,34.672 11.914,34.601 11.855,34.534 C11.694,34.336 11.534,34.137 11.37,33.939 C11.318,33.862 11.258,33.79 11.198,33.715 C11.008,33.47 10.825,33.226 10.642,32.974 C5.621,26.128 3.811,16.683 7.824,8.933" id="Shape" fill="#55BBA7" sketch:type="MSShapeGroup"></path>
            <path d="M18.417,7.925 C15.113,12.665 15.296,19.012 17.868,24.029 C18.293,24.869 18.779,25.685 19.324,26.459 C19.817,27.168 20.362,28.008 21.022,28.577 C21.253,28.838 21.503,29.092 21.761,29.348 C21.824,29.411 21.888,29.473 21.955,29.54 C22.202,29.777 22.452,30.01 22.709,30.238 C22.717,30.248 22.731,30.257 22.739,30.266 C22.742,30.268 22.746,30.271 22.746,30.271 C23.033,30.525 23.325,30.766 23.627,31.001 C23.698,31.051 23.761,31.107 23.832,31.158 C24.131,31.391 24.437,31.615 24.747,31.835 C24.758,31.839 24.766,31.846 24.781,31.852 C24.915,31.949 25.057,32.039 25.203,32.132 C25.266,32.173 25.333,32.221 25.397,32.261 C25.625,32.408 25.849,32.546 26.08,32.683 C26.114,32.7 26.147,32.718 26.181,32.735 C26.375,32.853 26.58,32.968 26.786,33.073 C26.857,33.116 26.928,33.15 26.998,33.189 C27.14,33.26 27.282,33.335 27.42,33.407 C27.439,33.417 27.465,33.428 27.487,33.437 C27.778,33.581 28.073,33.713 28.364,33.846 C28.435,33.874 28.495,33.898 28.562,33.926 C28.801,34.029 29.043,34.13 29.283,34.221 C29.391,34.257 29.492,34.299 29.593,34.335 C29.813,34.413 30.037,34.49 30.258,34.563 C30.366,34.599 30.463,34.628 30.56,34.66 C30.873,34.759 31.191,34.886 31.523,34.938 C48.528,37.758 52.462,24.659 52.462,24.659 C48.92,29.762 42.063,32.191 34.748,30.292 C34.419,30.208 34.099,30.114 33.785,30.012 C33.684,29.986 33.595,29.954 33.498,29.921 C33.27,29.848 33.042,29.772 32.822,29.69 C32.721,29.653 32.617,29.615 32.516,29.576 C32.273,29.481 32.031,29.388 31.795,29.283 C31.724,29.255 31.657,29.231 31.601,29.201 C31.299,29.07 31,28.93 30.709,28.79 C30.56,28.713 30.414,28.639 30.265,28.561 C30.176,28.516 30.09,28.473 30.011,28.432 C29.813,28.329 29.63,28.221 29.444,28.111 C29.4,28.087 29.355,28.064 29.31,28.038 C29.082,27.9 28.847,27.762 28.631,27.618 C28.556,27.576 28.493,27.527 28.422,27.482 C28.273,27.387 28.127,27.292 27.974,27.189 C27.664,26.974 27.362,26.747 27.06,26.519 C26.989,26.461 26.922,26.409 26.854,26.353 C23.644,23.826 21.106,20.37 19.904,16.457 C18.635,12.392 18.915,7.829 21.102,4.128" id="Shape" fill="#55BBA7" sketch:type="MSShapeGroup"></path>
            <path d="M30.308,3.802 C28.36,6.661 28.173,10.213 29.516,13.366 C30.942,16.718 33.857,19.347 37.254,20.592 C37.392,20.646 37.53,20.691 37.672,20.739 C37.735,20.758 37.795,20.778 37.862,20.799 C38.06,20.861 38.258,20.935 38.463,20.975 C47.858,22.789 50.403,16.154 51.087,15.178 C48.851,18.392 45.1,19.162 40.498,18.045 C40.136,17.957 39.74,17.827 39.39,17.7 C38.942,17.541 38.498,17.357 38.065,17.153 C37.255,16.759 36.471,16.285 35.747,15.736 C31.625,12.613 29.073,6.654 31.76,1.8" id="Shape" fill="#55BBA7" sketch:type="MSShapeGroup"></path>
            <path d="M247.995,17.195 L248.364,18.752 C248.468,19.198 248.185,19.558 247.729,19.558" id="Shape" fill="#6B6B6B" sketch:type="MSShapeGroup"></path>
            <path d="M218.358,14.523 C218.265,14.954 218.153,15.499 218.079,15.859 L214.828,31.074 L218.247,15.045 L218.358,14.523 L218.358,14.523 Z" id="Shape" fill="#6B6B6B" sketch:type="MSShapeGroup"></path>
            <path d="M120.963,24.705 L119.167,31.063 L120.963,24.707 L120.963,24.705 Z" id="Shape" fill="#6B6B6B" sketch:type="MSShapeGroup"></path>
            <path d="M248.364,18.752 L247.427,14.79 C246.688,11.923 244.594,10.568 239.888,10.568 L220.094,10.568 C219.638,10.568 219.183,10.774 219.09,11.219 L211.58,46.834 C211.482,47.283 211.453,47.604 211.505,47.826 C211.558,48.056 212.439,48.014 212.89,48.014 L219.746,48.014 C220.205,48.014 221.038,48.047 221.28,47.95 C221.534,47.846 221.646,47.167 221.739,46.718 L224.162,34.231 L227.122,20.38 C227.219,19.936 227.667,19.572 228.122,19.572 L247.728,19.559 C248.181,19.558 248.468,19.196 248.364,18.752" id="Shape" fill="#6B6B6B" sketch:type="MSShapeGroup"></path>
            <path d="M276.255,4.314 C275.796,4.319 267.56,4.314 267.56,4.314 C267.105,4.314 266.519,4.803 266.265,5.18 L251.002,27.635 C250.741,28.012 250.446,27.999 250.346,27.555 L249.218,22.634 C249.121,22.188 248.666,21.824 248.203,21.824 L238.393,21.824 C237.942,21.824 237.669,22.201 237.789,22.641 L242.186,38.057 C242.313,38.498 242.324,39.219 242.211,39.661 L240.16,47.47 C240.052,47.913 240.332,48.046 240.795,48.046 L250.481,48.046 C250.936,48.046 251.407,47.915 251.518,47.47 L253.57,39.552 C253.682,39.111 253.999,38.511 254.271,38.142 L279.18,5.108 C279.46,4.746 279.42,4.313 278.965,4.313 L276.255,4.314 L276.255,4.314 Z" id="Shape" fill="#6B6B6B" sketch:type="MSShapeGroup"></path>
            <path d="M174.121,10.599 L165.267,10.599 C164.816,10.599 164.353,10.758 164.263,11.205 L161.337,24.897 L158.422,38.006 C158.328,38.451 157.877,38.42 157.421,38.42 L151.603,38.42 C145.847,38.42 146.511,34.784 147.695,29.333 C147.71,29.279 151.386,11.205 151.386,11.205 C151.468,10.759 151.169,10.599 150.718,10.599 L142.282,10.599 C141.827,10.599 141.375,10.76 141.286,11.205 L137.892,29.32 C136.2,39.114 136.149,47.733 147.507,48.016 C147.694,48.024 165.442,48.016 165.442,48.016 C165.901,48.016 166.352,47.866 166.45,47.424 L170.302,29.258 L174.139,11.016 C174.139,11.017 174.275,10.599 174.121,10.599 L174.121,10.599 Z" id="Shape" fill="#6B6B6B" sketch:type="MSShapeGroup"></path>
            <path d="M85.937,10.568 L76.445,10.568 C75.989,10.568 75.53,10.676 75.43,11.124 L73.717,18.535 C73.62,18.973 73.911,19.324 74.37,19.324 L83.458,19.324 C83.917,19.324 84.373,18.91 84.47,18.468 L86.12,11.001 C86.12,11.001 86.251,10.568 85.937,10.568 L85.937,10.568 Z" id="Shape" fill="#6B6B6B" sketch:type="MSShapeGroup"></path>
            <path d="M73.754,21.824 C73.302,21.824 72.839,22.184 72.742,22.63 L71.462,28.283 L68.607,41.337 C68.607,41.337 67.088,48.276 66.942,48.712 C66.942,48.712 65.663,53.722 62.607,53.521 C61.185,53.427 59.56,53.101 59.56,53.101 L59.556,53.101 C58.702,52.843 58.641,53.73 58.537,54.173 L56.652,62.306 C56.544,62.751 56.835,63.152 57.287,63.158 C57.287,63.158 61.374,63.734 64.259,63.734 L64.733,63.734 C71.862,63.734 75.628,59.543 78.035,48.162 L80.857,34.988 L83.503,22.731 C83.6,22.285 83.331,21.871 82.876,21.871" id="Shape" fill="#6B6B6B" sketch:type="MSShapeGroup"></path>
            <path d="M196.523,10.514 C180.556,10.514 176.745,20.383 174.625,30.164 C172.505,40.138 172.686,48.02 189.206,48.02 L189.803,48.02 L204.321,48.02 C204.768,48.012 205.217,47.602 205.306,47.159 L206.93,40.833 C207.024,40.386 206.721,40.253 206.27,40.253 L191.41,40.253 C186.028,40.253 184.101,38.595 184.289,34.873 C184.285,34.449 184.77,33.371 185.226,33.371 L208.114,33.371 C209.119,33.365 209.151,32.777 209.151,32.777 C211.48,22.26 211.632,10.514 196.523,10.514 M200.732,26.183 C200.732,26.678 199.17,26.583 199.17,26.583 L186.723,26.493 C186.293,26.493 186.17,25.89 186.14,25.459 C186.139,25.444 186.171,24.942 186.207,24.817 C187.17,21.48 190.04,19.573 194.591,19.573 C199.711,19.573 200.805,22.113 200.805,24.929" id="Shape" fill="#6B6B6B" sketch:type="MSShapeGroup"></path>
            <path d="M127.517,37.727 C127.517,37.727 131.989,26.865 133.003,20.586 C134.392,12.185 130.189,0 113.938,0 C97.784,0 90.774,11.632 88.091,24.28 C85.419,37.018 88.917,48.11 104.982,48.02 L129.503,48.004 C129.955,48.002 130.425,47.637 130.541,47.201 L132.608,39.33 C132.72,38.887 132.44,38.525 131.981,38.523 L130.006,38.509 L128.032,38.499 C127.644,38.495 127.42,38.243 127.472,37.909 C127.479,37.85 127.487,37.79 127.517,37.727 L127.517,37.727 Z M119.082,31.063 L117.242,37.352 C117.115,37.793 116.596,38.088 116.14,38.088 L106.648,38.088 C99.444,38.088 97.694,32.521 99.444,24.214 C101.202,15.723 104.685,10.469 111.769,9.937 C121.455,9.208 123.437,16.047 121.089,23.91 L119.082,31.063 L119.082,31.063 Z" id="Shape" fill="#6B6B6B" sketch:type="MSShapeGroup"></path>
        </g>
    </g>
</svg>