<?xml version="1.0" encoding="UTF-8" standalone="no"?>
<svg width="68px" height="64px" viewBox="0 0 68 64" version="1.1" xmlns="http://www.w3.org/2000/svg" xmlns:xlink="http://www.w3.org/1999/xlink" xmlns:sketch="http://www.bohemiancoding.com/sketch/ns">
    <!-- Generator: Sketch 3.3.3 (12081) - http://www.bohemiancoding.com/sketch -->
    <title>LinkedIn__x28_alt_x29_</title>
    <desc>Created with Sketch.</desc>
    <defs></defs>
    <g id="Page-1" stroke="none" stroke-width="1" fill="none" fill-rule="evenodd" sketch:type="MSPage">
        <path d="M62.4301445,0 L4.98058253,0 C2.22966481,0 0,2.04814849 0,4.57607425 L0,59.2910255 C0,61.8190998 2.23044841,63.8690302 4.98058253,63.8690302 L62.4301445,63.8690302 C65.1804353,63.8690302 67.4075926,61.8177633 67.4075926,59.2910255 L67.4075926,4.57607425 C67.4075926,2.04889095 65.1804353,0 62.4301445,0 L62.4301445,0 Z M20.4360604,53.4627193 L10.251255,53.4627193 L10.251255,24.6266357 L20.4360604,24.6266357 L20.4360604,53.4627193 L20.4360604,53.4627193 Z M15.3446764,20.6871462 L15.2761895,20.6871462 C11.8607762,20.6871462 9.64678341,18.4740232 9.64678341,15.7033132 C9.64678341,12.8767703 11.9258152,10.7236381 15.4089319,10.7236381 C18.8923619,10.7236381 21.0350468,12.8761763 21.1027501,15.7033132 C21.1027501,18.4746172 18.8931455,20.6871462 15.3446764,20.6871462 L15.3446764,20.6871462 Z M57.1492852,53.4627193 L46.9677709,53.4627193 L46.9677709,38.034413 C46.9677709,34.1577355 45.4925593,31.5125012 41.8105642,31.5125012 C38.9938238,31.5125012 37.3217711,33.2970766 36.5875348,35.0200278 C36.3154677,35.6353782 36.2480778,36.4960371 36.2480778,37.3555081 L36.2480778,53.4621253 L26.0684442,53.4621253 C26.0684442,53.4621253 26.2016567,27.3306729 26.0684442,24.6261903 L36.249645,24.6261903 L36.249645,28.7143202 C37.601204,26.7499211 40.0164261,23.9477309 45.4231321,23.9477309 C52.1245074,23.9477309 57.1492852,28.0667471 57.1492852,36.928 L57.1492852,53.4627193 L57.1492852,53.4627193 Z M36.1838224,28.8059397 C36.2012183,28.7789142 36.2255101,28.7463944 36.249645,28.7147657 L36.249645,28.8059397 L36.1838224,28.8059397 L36.1838224,28.8059397 Z" id="LinkedIn__x28_alt_x29_" fill="#39BBA1" sketch:type="MSShapeGroup"></path>
    </g>
</svg>