<?xml version="1.0" encoding="UTF-8" standalone="no"?>
<svg width="38px" height="62px" viewBox="0 0 38 62" version="1.1" xmlns="http://www.w3.org/2000/svg" xmlns:xlink="http://www.w3.org/1999/xlink" xmlns:sketch="http://www.bohemiancoding.com/sketch/ns">
    <!-- Generator: Sketch 3.3.3 (12081) - http://www.bohemiancoding.com/sketch -->
    <title>Shape</title>
    <desc>Created with Sketch.</desc>
    <defs></defs>
    <g id="Page-1" stroke="none" stroke-width="1" fill="none" fill-rule="evenodd" sketch:type="MSPage">
        <path d="M34.1781547,0 L3.24318256,0 C1.49685349,0 0,1.4096963 0,3.05434198 L0,58.267447 C0,59.9120927 1.49685349,61.321789 3.24318256,61.321789 L34.4276303,61.321789 C36.1739594,61.321789 37.6708128,59.9120927 37.6708128,58.267447 L37.6708128,3.05434198 C37.4213373,1.4096963 35.9244838,0 34.1781547,0 L34.1781547,0 L34.1781547,0 Z M18.7106686,58.7373458 C16.714864,58.7373458 14.9685349,57.0927001 14.9685349,55.2131051 C14.9685349,53.33351 16.714864,51.6888643 18.7106686,51.6888643 C20.7064733,51.6888643 22.4528024,53.33351 22.4528024,55.2131051 C22.4528024,57.0927001 20.7064733,58.7373458 18.7106686,58.7373458 L18.7106686,58.7373458 L18.7106686,58.7373458 Z M34.9265814,49.3393705 L2.49475582,49.3393705 L2.49475582,4.69898766 L34.9265814,4.69898766 L34.9265814,49.3393705 L34.9265814,49.3393705 Z" id="Shape" fill="#39BBA1" sketch:type="MSShapeGroup"></path>
    </g>
</svg>