<?xml version="1.0" encoding="UTF-8" standalone="no"?>
<svg width="64px" height="103px" viewBox="0 0 64 103" version="1.1" xmlns="http://www.w3.org/2000/svg" xmlns:xlink="http://www.w3.org/1999/xlink" xmlns:sketch="http://www.bohemiancoding.com/sketch/ns">
    <!-- Generator: Sketch 3.3.3 (12081) - http://www.bohemiancoding.com/sketch -->
    <title>sing3</title>
    <desc>Created with Sketch.</desc>
    <defs></defs>
    <g id="Page-1" stroke="none" stroke-width="1" fill="none" fill-rule="evenodd" sketch:type="MSPage">
        <g id="sing3" sketch:type="MSLayerGroup" fill="#39BBA1">
            <g id="Group" sketch:type="MSShapeGroup">
                <path d="M29.234811,24.015945 C35.5999313,24.015945 40.7783162,18.8375601 40.7783162,12.4724399 C40.7783162,6.10731959 35.5999313,0.93 29.234811,0.93 C22.8696907,0.93 17.6913058,6.10731959 17.6913058,12.4724399 C17.6913058,18.8375601 22.8696907,24.015945 29.234811,24.015945 L29.234811,24.015945 Z" id="Shape"></path>
                <path d="M63.1079038,99.1499313 L54.4044674,90.4454296 L54.4044674,59.2057388 C54.8902405,58.9351546 55.3057045,58.5431271 55.5975945,58.057354 L56.4263918,56.6778007 C57.3254983,55.18 56.8589003,53.1974914 55.3845361,52.2600344 L54.4044674,51.6357732 L54.4044674,22.8494502 C56.0865636,22.2028179 57.2892784,20.5814433 57.2892784,18.6735052 L57.2892784,16.189244 C57.2892784,13.716701 55.2780069,11.7054296 52.8054639,11.7054296 C50.3339863,11.7054296 48.3227148,13.716701 48.3227148,16.189244 L48.3227148,18.6735052 C48.3227148,20.5814433 49.5254296,22.2038832 51.2085911,22.8494502 L51.2085911,49.6031959 L43.6567354,44.7965979 C42.9035739,44.3182818 42.0236426,43.0931959 41.8095189,42.2271134 L38.6328179,29.3871478 C38.5486598,29.0483849 38.4123024,28.7458419 38.2397251,28.4805842 C37.7113402,27.4429897 36.6439175,26.7239175 35.4017869,26.7239175 L22.9485223,26.7239175 L9.87632302,1.89835052 C9.25845361,0.727594502 8.04402062,0 6.70601375,0 C6.16484536,0 5.62367698,0.125704467 5.14109966,0.364329897 L2.78573883,1.52975945 C1.94309278,1.94628866 1.3209622,2.66536082 1.03226804,3.55487973 C0.743573883,4.44439863 0.825601375,5.39357388 1.26343643,6.22343643 L16.4086942,34.9873883 L16.4086942,60.8207216 C16.3820619,60.8920962 16.3447766,60.9581443 16.3213402,61.0305842 L5.89958763,93.6690034 C5.46601375,95.0283162 5.59810997,96.4590034 6.27243986,97.6968729 C6.94676976,98.9347423 8.07704467,99.8210653 9.45446735,100.192852 L10.1511684,100.381409 C10.6071134,100.504983 11.0801031,100.567835 11.5552234,100.567835 C13.9531959,100.567835 16.1317182,98.9901375 16.8539863,96.7295876 L26.7484192,65.7434364 L27.5697595,65.7434364 L29.3743643,74.7131959 C29.6609278,76.1353608 29.9293814,78.5610309 29.9624055,80.0119588 L30.3693471,98.3381787 C30.4130241,100.308969 31.9161512,101.795052 33.8656357,101.795052 C34.0360825,101.795052 34.2097251,101.783333 34.3854983,101.758832 L37.8189347,101.282646 C39.8653608,100.998213 41.4419931,99.0881443 41.3354639,97.0246735 L40.3745704,78.6249485 C40.2936082,77.0728179 40.0560481,74.5608591 39.844055,73.0257732 L38.5965979,51.934055 L51.2075258,59.1950859 L51.2075258,90.4454296 L42.5040893,99.1499313 C41.8798282,99.7741924 41.8798282,100.78622 42.5040893,101.409416 C42.8162199,101.721546 43.2252921,101.877079 43.6343643,101.877079 C44.0434364,101.877079 44.4525086,101.721546 44.7646392,101.409416 L51.2085911,94.9654639 L51.2085911,101.192096 C51.2085911,102.075223 51.9234021,102.790034 52.8065292,102.790034 C53.6896564,102.790034 54.4044674,102.075223 54.4044674,101.192096 L54.4044674,94.9654639 L60.8484192,101.409416 C61.1605498,101.721546 61.569622,101.877079 61.9786942,101.877079 C62.3877663,101.877079 62.7968385,101.721546 63.1089691,101.409416 C63.7321649,100.785155 63.7321649,99.7741924 63.1079038,99.1499313 L63.1079038,99.1499313 Z" id="Shape"></path>
            </g>
        </g>
    </g>
</svg>