<?xml version="1.0" encoding="UTF-8" standalone="no"?>
<svg width="94px" height="82px" viewBox="0 0 94 82" version="1.1" xmlns="http://www.w3.org/2000/svg" xmlns:xlink="http://www.w3.org/1999/xlink" xmlns:sketch="http://www.bohemiancoding.com/sketch/ns">
    <!-- Generator: Sketch 3.3.3 (12081) - http://www.bohemiancoding.com/sketch -->
    <title>theater8</title>
    <desc>Created with Sketch.</desc>
    <defs></defs>
    <g id="Page-1" stroke="none" stroke-width="1" fill="none" fill-rule="evenodd" sketch:type="MSPage">
        <g id="theater8" sketch:type="MSLayerGroup" transform="translate(46.936206, 40.697849) scale(-1, 1) translate(-46.936206, -40.697849) " fill="#39BBA1">
            <g id="Group" sketch:type="MSShapeGroup">
                <path d="M92.0213031,27.0837751 C91.8581156,26.4355801 91.4279661,25.8881891 90.839184,25.5721124 C90.2519864,25.2580161 89.5578454,25.2047425 88.9280685,25.4259566 C83.4066279,27.3657884 74.8876075,28.6140538 65.3062842,28.6140538 C62.9769017,28.6140538 60.7318855,28.5251325 58.5551942,28.385116 C57.4297155,33.4700697 55.6312864,38.139133 53.334185,42.2512991 C53.4458812,42.2467441 53.5526265,42.2285242 53.665313,42.2285242 C56.6426924,42.2285242 59.055649,41.9801782 59.055649,43.9857602 C59.055649,45.9913423 56.6424943,49.4919515 53.665313,49.4919515 C51.9310499,49.4919515 50.4041379,48.9306975 49.4188736,48.0735671 C46.4432766,51.7678624 42.9670267,54.6808778 39.1386563,56.6072427 C43.4550048,71.1358798 53.5464871,81.3277699 65.3062842,81.3277699 C80.9950575,81.3277699 93.7129869,63.190194 93.7129869,40.8162791 C93.7127889,35.9899696 93.1101438,31.3716054 92.0213031,27.0837751 L92.0213031,27.0837751 Z M76.6268217,69.4986578 C76.5765188,69.7121482 76.4176882,69.886228 76.2089508,69.9547509 C75.9998174,70.0246601 75.7696913,69.9806946 75.6017508,69.8386977 C73.3888176,67.9792714 69.6244151,66.7438788 65.3064822,66.7438788 C60.9881532,66.7438788 57.2237507,67.9792714 55.0110156,69.8386977 C54.842877,69.9791102 54.6125529,70.0232738 54.4038155,69.9547509 C54.1948801,69.8846437 54.0362476,69.7121482 53.9859447,69.4986578 C53.8027548,68.7191603 53.6900683,67.9155015 53.6900683,67.0795617 C53.6900683,60.6639567 58.8912733,55.4631479 65.3066803,55.4631479 C71.7220872,55.4631479 76.9228961,60.6641548 76.9228961,67.0795617 C76.9225,67.9155015 76.8098135,68.7193583 76.6268217,69.4986578 L76.6268217,69.4986578 Z M76.9470573,49.4917535 C73.9696779,49.4917535 71.5567213,45.9911443 71.5567213,43.9855622 C71.5567213,41.9799801 73.969876,42.2283261 76.9470573,42.2283261 C79.9242387,42.2283261 82.3373934,43.8544577 82.3373934,45.8600398 C82.3371954,47.8656219 79.9242387,49.4917535 76.9470573,49.4917535 L76.9470573,49.4917535 Z" id="Shape"></path>
                <path d="M56.8134055,15.6305487 C56.8134055,10.8048334 56.2107604,6.18627114 55.1219197,1.89863884 C54.9587322,1.2504439 54.5285827,0.702656785 53.9398006,0.386976144 C53.592037,0.201013708 53.2060511,0.106547168 52.8170945,0.106547168 C52.5515188,0.106547168 52.2847548,0.150314684 52.0286851,0.240820364 C46.5072445,2.18065216 37.9884222,3.4285215 28.4069008,3.4285215 C18.8251813,3.4285215 10.306359,2.18065216 4.78491843,0.240820364 C4.53023505,0.150314684 4.26485735,0.106547168 3.99947965,0.106547168 C3.61072111,0.106547168 3.2229528,0.202003924 2.87360484,0.388560488 C2.28640716,0.70424113 1.85487132,1.2518302 1.6914858,1.89863884 C0.602645039,6.18646918 0,10.8048334 0,15.6305487 C0,38.0048598 12.7177313,56.1420395 28.4069008,56.1420395 C44.0956741,56.1420395 56.8134055,38.0048598 56.8134055,15.6305487 L56.8134055,15.6305487 Z M11.3753955,20.6655955 C11.3753955,18.6596173 13.7885502,17.0338818 16.7659296,17.0338818 C19.7431109,17.0338818 22.1562656,20.5340949 22.1562656,22.5400731 C22.1562656,24.5456552 19.7431109,24.2973092 16.7659296,24.2973092 C13.7885502,24.2973092 11.3753955,22.6711776 11.3753955,20.6655955 L11.3753955,20.6655955 Z M28.4069008,48.4833182 C21.9912958,48.4833182 16.7904869,43.2823113 16.7904869,36.8673004 C16.7904869,36.0313606 16.9031734,35.2273058 17.0861652,34.4478083 C17.1364681,34.234714 17.2952987,34.0622185 17.5040361,33.9917151 C17.7131695,33.9231922 17.9432956,33.9673558 18.1112361,34.1077684 C20.3241693,35.9671947 24.0885718,37.2025873 28.4067027,37.2025873 C32.7248337,37.2025873 36.4892362,35.9671947 38.7019713,34.1077684 C38.8701099,33.9657715 39.1002359,33.9218059 39.3091714,33.9917151 C39.5181068,34.0606341 39.6767393,34.234714 39.7270422,34.4478083 C39.910034,35.2273058 40.0229186,36.0313606 40.0229186,36.8673004 C40.0231166,43.2823113 34.8221097,48.4833182 28.4069008,48.4833182 L28.4069008,48.4833182 Z M34.6571398,22.5400731 C34.6571398,20.5340949 37.0702945,17.0338818 40.0476739,17.0338818 C43.0248553,17.0338818 45.43801,18.6596173 45.43801,20.6655955 C45.43801,22.6711776 43.0248553,24.2973092 40.0476739,24.2973092 C37.0702945,24.2973092 34.6571398,24.5456552 34.6571398,22.5400731 L34.6571398,22.5400731 Z" id="Shape"></path>
            </g>
        </g>
    </g>
</svg>