<?xml version="1.0" encoding="UTF-8" standalone="no"?>
<svg width="92px" height="88px" viewBox="0 0 92 88" version="1.1" xmlns="http://www.w3.org/2000/svg" xmlns:xlink="http://www.w3.org/1999/xlink" xmlns:sketch="http://www.bohemiancoding.com/sketch/ns">
    <!-- Generator: Sketch 3.3.3 (12081) - http://www.bohemiancoding.com/sketch -->
    <title>airplane68</title>
    <desc>Created with Sketch.</desc>
    <defs></defs>
    <g id="Page-1" stroke="none" stroke-width="1" fill="none" fill-rule="evenodd" sketch:type="MSPage">
        <g id="airplane68" sketch:type="MSLayerGroup" fill="#39BBA1">
            <path d="M92.0000102,42.3510565 C92.0000102,63.4797907 76.4154792,81.0367597 56.1380458,84.1324398 C56.3091177,83.1947011 56.357072,82.2235899 56.2419217,81.2395506 C56.2419217,81.2395506 56.1207582,80.2040995 55.9623138,78.8489033 C63.1616152,77.6223868 69.6614459,74.3189551 74.8132961,69.5681769 C74.5040738,69.3109677 74.1960542,68.9773925 73.892394,68.5345297 C72.5241194,66.5380393 74.3133091,64.5570326 74.3133091,62.811137 C74.3133091,61.0986139 70.8607532,61.2394702 70.7343283,60.1052544 C70.2980799,56.1772148 73.1448188,56.1236984 74.6625183,54.6059989 C76.1802178,53.0882994 73.162407,49.6378481 71.2131192,49.8604821 C69.2506027,50.0700377 63.7265433,48.9541618 64.2313408,44.7277234 C64.8463277,39.5800824 57.6730329,40.0342197 56.6458498,37.6315462 C55.1484444,34.1293825 57.6377061,29.8336435 60.8844646,28.8577218 C65.4832625,27.4754668 70.0136616,23.7237605 69.6597923,19.547381 C69.2588707,14.8173479 67.1179162,10.5515239 63.5917002,8.01746485 C59.9222227,6.530883 55.9654706,5.61163454 51.8257709,5.37968027 C48.1311888,5.52579793 44.8829271,6.34688298 45.0311493,8.03836027 C45.3944892,12.1834718 57.1817649,13.2601124 55.2037647,17.1349363 C54.1725228,19.1548777 46.4330971,22.0058257 47.8784894,25.0120613 C48.8186333,26.9670615 51.1323133,25.2915189 50.2685354,29.0447284 C49.8710713,30.7716828 48.3568294,34.0164871 46.0281167,34.2258923 C43.6467897,34.4482257 41.6638287,28.1396106 35.1820372,27.932761 C32.1177755,27.8347479 27.8008404,32.7137549 31.4664094,36.1751801 C33.6861351,38.2713372 37.8515407,33.655853 39.0809134,37.2612913 C39.9472468,39.8019648 38.9642598,45.1391679 43.0076001,47.3697171 C44.4815545,48.1828349 46.7411168,48.8916258 48.9758752,50.0271945 C45.6589141,50.7045672 41.5832535,51.968515 36.7705406,53.8223452 L32.7156252,52.7524693 C34.4131156,51.3393973 37.1711616,50.3446848 36.477253,47.256972 C35.4578869,42.7205598 27.5812129,44.4314293 22.1509575,39.0013242 C20.4850357,37.3357031 16.9317609,31.8047287 16.9463426,25.1596822 C14.239558,30.3011599 12.6990088,36.1482716 12.6990088,42.3512068 C12.6990088,44.2605077 12.8446755,46.1365863 13.1247343,47.9689198 C13.0608454,47.9678675 12.9977082,47.9567434 12.9339696,47.9567434 C11.2238518,47.9567434 9.54665555,48.3160244 7.99227631,48.9953513 C7.64892987,46.8298936 7.46568149,44.6119718 7.46568149,42.3513572 C7.46568149,19.0454398 26.4268533,0.0836666667 49.7326204,0.0836666667 C73.0388384,0.083366013 92.0000102,19.0451392 92.0000102,42.3510565 L92.0000102,42.3510565 Z M60.2944319,54.6706394 L49.9714897,59.4157053 L50.1315877,57.1663652 L56.8190263,54.1475021 C55.8652027,54.0792538 54.8769542,54.0532472 53.890209,54.0532472 C50.1953263,54.0532472 43.9527047,55.9236134 37.0481942,58.6642215 L14.9040025,52.8232732 C12.8346036,52.2772863 10.6314138,52.6135673 8.81892345,53.7522929 L7.73010635,54.4362799 C6.66714546,55.1040316 6.65587095,56.6493913 7.70891027,57.332777 L21.0201992,65.9687517 C17.8403361,67.5949871 14.8234273,69.2466278 12.1638454,70.8240071 L5.33329565,67.2077453 C4.21757005,66.6171112 2.89845227,66.5470589 1.72665477,67.0163792 L1.08009915,67.2755427 C0.115902973,67.6614316 -0.288025172,68.8081245 0.221582722,69.7132423 L3.98441316,76.3985763 L3.98606676,76.397975 C2.56638034,77.6193803 1.75732144,78.6322824 1.75732144,79.3332563 C1.75732144,81.4312173 4.33903411,81.9555572 6.6146814,81.9555572 C10.6735053,81.9555572 64.2750859,69.6827259 64.2750859,58.5639536 C64.2747852,56.3619664 62.7688112,55.2606722 60.2944319,54.6706394 L60.2944319,54.6706394 Z M37.6945995,76.3791841 L49.4896922,72.224151 C50.0092217,72.0410529 50.5643786,72.3874059 50.6284178,72.9345955 L51.662516,81.776067 C51.9209278,83.9854202 50.7325943,86.1114923 48.7155091,87.0492309 L47.6092541,87.5633486 C46.9183521,87.8844467 46.0987703,87.7123225 45.5953258,87.1406296 L37.3351681,77.75723 C36.9330439,77.3002365 37.1203511,76.581524 37.6945995,76.3791841 L37.6945995,76.3791841 Z" id="Shape" sketch:type="MSShapeGroup"></path>
        </g>
    </g>
</svg>