<?xml version="1.0" encoding="UTF-8" standalone="no"?>
<svg width="68px" height="44px" viewBox="0 0 68 44" version="1.1" xmlns="http://www.w3.org/2000/svg" xmlns:xlink="http://www.w3.org/1999/xlink" xmlns:sketch="http://www.bohemiancoding.com/sketch/ns">
    <!-- Generator: Sketch 3.3.3 (12081) - http://www.bohemiancoding.com/sketch -->
    <title>Twitter__x28_alt_x29_</title>
    <desc>Created with Sketch.</desc>
    <defs></defs>
    <g id="Page-1" stroke="none" stroke-width="1" fill="none" fill-rule="evenodd" sketch:type="MSPage">
        <path d="M59.7707516,19.5612807 C63.5566526,19.2653364 66.1246773,17.6345986 67.1129578,15.4219211 C65.7472939,16.2167981 61.5080001,17.0833968 59.1667502,16.2580789 C59.0520307,15.7368724 58.9238332,15.2418005 58.7979865,14.7948399 C57.0140352,8.58817633 50.9060043,3.58786079 44.5060028,4.19192575 C45.0238078,3.99383759 45.5489787,3.80941067 46.0725825,3.64384223 C46.7770418,3.4047703 50.9102358,2.76759165 50.2593749,1.38528074 C49.7108526,0.169429234 44.6609995,2.30414849 43.7101753,2.58316473 C44.965351,2.13590719 47.0411161,1.36657077 47.2635027,-3.55271368e-15 C45.3405403,0.249911833 43.4528399,1.11131323 41.9942408,2.36384223 C42.5208222,1.8267471 42.9203031,1.1721949 43.005089,0.46774942 C37.8762487,3.57226914 34.8802199,9.83120186 32.4555946,15.9025893 C30.5517521,14.1543944 28.8643407,12.7777262 27.3505759,12.01329 C23.1039162,9.85555452 18.0263236,7.60426914 10.0556676,4.80074246 C9.81102666,7.29941531 11.3598969,10.6217726 15.8229878,12.8311833 C14.8560214,12.708529 13.0877422,12.9821995 11.673495,13.3030905 C12.2494434,16.1655684 14.1304047,18.5239165 19.2225724,19.6643341 C16.8954273,19.8098561 15.692753,20.3116102 14.6027608,21.3930766 C15.6626626,23.3839072 18.2490236,25.7269606 22.9015898,25.2459954 C17.7288678,27.3584408 20.7924432,31.2704594 25.0014899,30.6870348 C17.8211762,37.714116 6.50061619,37.1976613 0,31.3202042 C16.9726906,53.2334478 53.8673979,44.2796845 59.3656287,23.1730487 C63.4850312,23.2063109 65.9066788,21.8210302 67.4082195,20.2937912 C65.0348418,20.6754153 61.5948234,20.2810209 59.7707516,19.5612807 L59.7707516,19.5612807 Z" id="Twitter__x28_alt_x29_" fill="#39BBA1" sketch:type="MSShapeGroup"></path>
    </g>
</svg>